<?xml version="1.0" encoding="utf-8"?>
<!-- Generator: Adobe Illustrator 16.0.4, SVG Export Plug-In . SVG Version: 6.00 Build 0)  -->
<!DOCTYPE svg PUBLIC "-//W3C//DTD SVG 1.1//EN" "http://www.w3.org/Graphics/SVG/1.1/DTD/svg11.dtd">
<svg version="1.1" id="Layer_1" xmlns="http://www.w3.org/2000/svg" xmlns:xlink="http://www.w3.org/1999/xlink" x="0px" y="0px"
	 width="640px" height="640px" viewBox="0 0 640 640" enable-background="new 0 0 640 640" xml:space="preserve">
<g>
	<path d="M57.124,114.664H206.21c19.666,0,37.737,2.218,54.213,6.644c16.477,4.43,30.604,10.629,42.388,18.602
		c11.78,7.972,20.949,17.539,27.505,28.701c6.554,11.162,9.833,23.479,9.833,36.94c0,10.099-1.063,19.134-3.188,27.106
		c-2.126,7.972-5.759,15.373-10.896,22.19c-5.14,6.822-12.05,13.287-20.729,19.399c-8.682,6.113-19.577,12.271-32.688,18.47v1.063
		c13.11,2.125,25.023,5.714,35.744,10.763c10.718,5.05,19.841,11.474,27.373,19.268c7.528,7.799,13.33,16.787,17.407,26.973
		c4.073,10.189,6.111,21.484,6.111,33.883c0,14-3.056,27.107-9.168,39.332c-6.112,12.227-14.795,22.854-26.043,31.891
		c-11.253,9.035-24.849,16.123-40.793,21.258c-15.945,5.143-33.75,7.709-53.416,7.709H57.124V114.664z M119.309,281.29h79.194
		c12.4,0,23.474-1.768,33.218-5.314c9.743-3.544,17.938-8.46,24.582-14.75c6.644-6.285,11.694-13.686,15.148-22.19
		c3.455-8.504,5.182-17.806,5.182-27.903c0-10.804-2.038-20.636-6.112-29.498c-4.077-8.858-10.455-16.433-19.134-22.721
		c-8.682-6.287-19.666-11.117-32.953-14.484c-13.288-3.362-29.233-5.049-47.835-5.049h-51.29V281.29z M119.309,457.748h67.235
		c18.071,0,33.75-1.729,47.038-5.184c13.287-3.453,24.271-8.279,32.953-14.48c8.679-6.203,15.102-13.686,19.267-22.457
		c4.162-8.77,6.245-18.381,6.245-28.834c0-11.693-1.86-22.59-5.581-32.688c-3.72-10.1-9.833-18.824-18.337-26.176
		c-8.504-7.349-19.578-13.156-33.219-17.408c-13.644-4.251-30.386-6.378-50.227-6.378h-65.375V457.748z"/>
	<path d="M339.181,278.818l194.53-163.968h40.659L389.408,270.581l234.658,214.46h-79.194L339.181,297.155L327.5,288
		L339.181,278.818z"/>
</g>
</svg>
