<?xml version="1.0" encoding="utf-8"?>
<!-- Generator: Adobe Illustrator 16.0.4, SVG Export Plug-In . SVG Version: 6.00 Build 0)  -->
<!DOCTYPE svg PUBLIC "-//W3C//DTD SVG 1.1//EN" "http://www.w3.org/Graphics/SVG/1.1/DTD/svg11.dtd">
<svg version="1.1" id="Layer_1" xmlns="http://www.w3.org/2000/svg" xmlns:xlink="http://www.w3.org/1999/xlink" x="0px" y="0px"
	 width="640px" height="640px" viewBox="0 0 640 640" enable-background="new 0 0 640 640" xml:space="preserve">
<rect x="232.174" y="103.544" fill="#6F7587" width="188.611" height="193.649"/>
<rect x="232.174" y="314.12" fill="#6F7587" width="188.611" height="207.298"/>
<rect x="400.276" y="327.77" fill="#6F7587" width="64.55" height="193.648"/>
<rect x="413.866" y="140.915" fill="#6F7587" width="32.274" height="129.1"/>
<g>
	<path fill="#174CA1" d="M155.973,83.041h186.125c24.551,0,47.11,2.767,67.68,8.294c20.569,5.531,38.207,13.271,52.918,23.224
		c14.708,9.953,26.152,21.896,34.338,35.832c8.183,13.934,12.275,29.309,12.275,46.116c0,12.607-1.327,23.887-3.981,33.841
		c-2.653,9.953-7.188,19.189-13.603,27.703c-6.416,8.517-15.041,16.588-25.878,24.22c-10.84,7.631-24.44,15.317-40.808,23.058v1.326
		c16.367,2.654,31.24,7.135,44.624,13.438c13.379,6.302,24.77,14.322,34.172,24.052c9.399,9.734,16.642,20.959,21.731,33.676
		c5.086,12.719,7.631,26.818,7.631,42.299c0,17.475-3.816,33.84-11.446,49.102c-7.632,15.266-18.47,28.535-32.513,39.816
		c-14.049,11.277-31.021,20.129-50.928,26.541c-19.907,6.416-42.135,9.621-66.686,9.621H155.973V83.041z M233.608,291.061h98.868
		c15.48,0,29.304-2.209,41.471-6.635c12.163-4.422,22.395-10.56,30.69-18.413c8.293-7.85,14.597-17.086,18.91-27.703
		c4.312-10.616,6.469-22.229,6.469-34.836c0-13.49-2.545-25.765-7.631-36.826c-5.088-11.058-13.052-20.515-23.888-28.367
		c-10.839-7.85-24.551-13.878-41.14-18.082c-16.588-4.2-36.494-6.304-59.718-6.304h-64.031V291.061z M233.608,511.359h83.937
		c22.561,0,42.137-2.158,58.724-6.473c16.59-4.312,30.3-10.336,41.141-18.082c10.834-7.738,18.854-17.084,24.054-28.033
		c5.194-10.949,7.796-22.945,7.796-35.998c0-14.598-2.322-28.199-6.968-40.809c-4.644-12.605-12.275-23.496-22.892-32.678
		c-10.617-9.178-24.442-16.422-41.472-21.73c-17.033-5.309-37.936-7.964-62.705-7.964h-81.615V511.359z"/>
	<path fill="#2680BC" stroke="#174E9E" stroke-miterlimit="10" d="M189.506,162.361h55.574v146.527l173.838-146.527h36.336
		L289.962,301.524l209.703,191.651h-70.773l-183.812-167.9v167.9h-55.574V162.361z"/>
</g>
</svg>
